<?xml version="1.0" encoding="utf-8"?>
<!-- Generator: Adobe Illustrator 28.2.0, SVG Export Plug-In . SVG Version: 6.00 Build 0)  -->
<svg version="1.1" id="Layer_1" xmlns="http://www.w3.org/2000/svg" xmlns:xlink="http://www.w3.org/1999/xlink" x="0px" y="0px"
	 viewBox="0 0 1920 1080" style="enable-background:new 0 0 1920 1080;" xml:space="preserve">
<style type="text/css">
	.st0{fill:#FFFFFF;}
</style>
<g>
	<path class="st0" d="M774.8,337.8c-3.1,79.4-40.1,103.1-85.1,103.1c-46.9-0.2-85.5-25.7-85.3-114.7v-17.1
		c-0.2-88.8,38.5-114.3,85.3-114.7c45,0.2,82,23.9,85.1,103.1h-49.9c-4.6-23.1-18.4-28.5-35.1-28.5c-19.9,0.5-36.8,7.2-36.5,45.8
		v5.8c-0.3,38.3,16.6,45.3,36.5,45.8c16.7,0,30.7-5.6,35.1-28.7H774.8z"/>
	<path class="st0" d="M834.4,200.6h57.9l67,234.9h-54.8l-9.9-40.2h-62.6l-9.9,40.2h-54.8L834.4,200.6z M846.2,337.9h34.3l-17.1-69.4
		L846.2,337.9z"/>
	<path class="st0" d="M1040.9,291.1c34.9,3.3,83.8,7.9,83.8,66.8c0,67.1-40.9,83-84.8,83c-43.8-0.2-80.1-10.1-84.8-83h51
		c5.6,18.2,18.5,22.9,33.7,22.9c15.2,0,33.7-4.7,33.7-22.9c0-10.3-15.2-11.9-34.8-13.6c-34.9-3.3-83.8-7.9-83.8-66.6
		c0-67.1,40.9-83.2,84.8-83.2c43.8,0.5,80.1,9.8,84.8,83.2h-51c-5.6-18.5-18.5-22.9-33.7-22.9c-15.2,0-33.7,4.2-33.7,22.9
		C1006.1,288,1021.3,289.4,1040.9,291.1z"/>
	<path class="st0" d="M1190.6,200.6h57.9l67,234.9h-54.8l-9.9-40.2h-62.6l-9.9,40.2h-54.8L1190.6,200.6z M1202.4,337.9h34.3
		l-17.1-69.4L1202.4,337.9z"/>
	<path class="st0" d="M627.8,526.2h48.8v126.2c0.2,88.8-38.5,114.3-85.3,114.5c-46.9-0.2-85.5-25.7-85.3-114.5V526.2h48.7v120.4
		c-0.2,38.6,16.6,45.3,36.6,45.8c19.9-0.5,36.8-7.2,36.5-45.8V526.2z"/>
	<path class="st0" d="M818.9,526.4c25.7-0.5,47.6,40.2,47.2,88.8c0,17.7-2.5,33.7-7.5,48.1c-4.9,14.2-11.5,25-19.7,32.2l27.2,65.9
		h-51.9L790.7,704h-43.5v57.3h-48.7V526.4H818.9z M747.2,595.1v40h59.4c3,0,5.5-1.9,7.5-5.8c2.1-4,3.2-8.7,3.2-14.2
		c0-11.2-4.7-20.1-10.7-20.1H747.2z"/>
	<path class="st0" d="M1048.8,698.4c0.3,41.1-18.1,63.1-39.6,63.1h-128V526.6H1000c21.7-0.2,40,22,39.7,62.9
		c0,22.5-5.6,39.9-14.5,50.5C1039.3,648.6,1048.8,668.8,1048.8,698.4z M929.9,582.3V614h56.4c4.2,0,7.6-8,7.6-15.9
		c0-7.9-3.4-15.7-7.6-15.7H929.9z M995.4,705.5c4.2,0,7.6-7.9,7.6-15.7c0-7.9-3.4-15.7-7.6-15.7h-65.5v31.5H995.4z"/>
	<path class="st0" d="M1114.8,526.6h57.9l67,234.9h-54.8l-9.9-40.2h-62.6l-9.9,40.2h-54.8L1114.8,526.6z M1126.6,663.9h34.3
		l-17.1-69.4L1126.6,663.9z"/>
	<path class="st0" d="M1365.3,526.2h48.8v234.9h-54.8l-67.1-143.5v143.5h-48.7V526.2h67l54.8,124.5V526.2z"/>
</g>
<g>
</g>
<g>
</g>
<g>
</g>
<g>
</g>
<g>
</g>
<g>
</g>
<g>
</g>
<g>
</g>
<g>
</g>
<g>
</g>
<g>
</g>
<g>
</g>
<g>
</g>
<g>
</g>
<g>
</g>
</svg>
