<?xml version="1.0" encoding="utf-8"?>
<!-- Generator: Adobe Illustrator 28.2.0, SVG Export Plug-In . SVG Version: 6.00 Build 0)  -->
<svg version="1.1" id="Layer_1" xmlns="http://www.w3.org/2000/svg" xmlns:xlink="http://www.w3.org/1999/xlink" x="0px" y="0px"
	 viewBox="0 0 1920 1080" style="enable-background:new 0 0 1920 1080;" xml:space="preserve">
<style type="text/css">
	.st0{fill:#FFFFFF;}
</style>
<g>
	<path class="st0" d="M710,318.2c-2.4,62.3-31.4,80.9-66.7,80.9c-36.8-0.1-67.1-20.2-66.9-90v-13.4c-0.1-69.7,30.2-89.7,66.9-90
		c35.3,0.1,64.3,18.8,66.7,80.9h-39.2c-3.6-18.1-14.4-22.4-27.6-22.4c-15.6,0.4-28.9,5.6-28.7,35.9v4.5c-0.2,30,13.1,35.5,28.7,35.9
		c13.1,0,24.1-4.4,27.6-22.5H710z"/>
	<path class="st0" d="M756.7,210.6h45.4l52.6,184.3h-43l-7.7-31.5h-49.1l-7.7,31.5h-43L756.7,210.6z M766,318.3h26.9l-13.4-54.4
		L766,318.3z"/>
	<path class="st0" d="M918.7,281.6c27.3,2.6,65.8,6.2,65.7,52.4c0,52.7-32.1,65.1-66.5,65.1c-34.3-0.1-62.9-8-66.5-65.1h40
		c4.4,14.3,14.5,18,26.5,18c11.9,0,26.5-3.7,26.5-18c0-8.1-11.9-9.3-27.3-10.7c-27.3-2.6-65.8-6.2-65.7-52.2
		c0-52.7,32.1-65.3,66.5-65.3c34.3,0.4,62.9,7.7,66.5,65.3h-40c-4.4-14.5-14.5-18-26.5-18c-11.9,0-26.5,3.3-26.5,18
		C891.4,279.1,903.3,280.2,918.7,281.6z"/>
	<path class="st0" d="M1036.2,210.6h45.4l52.6,184.3h-43l-7.7-31.5h-49.1l-7.7,31.5h-43L1036.2,210.6z M1045.4,318.3h26.9
		l-13.4-54.4L1045.4,318.3z"/>
	<path class="st0" d="M594.6,547.3h38.3v99c0.1,69.7-30.2,89.7-66.9,89.8c-36.8-0.1-67.1-20.2-66.9-89.8v-99h38.2v94.5
		c-0.1,30.3,13.1,35.5,28.7,35.9c15.6-0.4,28.9-5.6,28.7-35.9V547.3z"/>
	<path class="st0" d="M744.6,547.4c20.2-0.4,37.3,31.5,37,69.7c0,13.9-2,26.5-5.9,37.7c-3.9,11.1-9,19.6-15.5,25.2l21.4,51.7h-40.7
		l-18.4-45h-34.1v45h-38.2V547.4H744.6z M688.3,601.3v31.4h46.6c2.3,0,4.3-1.5,5.9-4.5c1.7-3.2,2.5-6.9,2.5-11.1
		c0-8.8-3.7-15.8-8.4-15.8H688.3z"/>
	<path class="st0" d="M924.9,682.4c0.2,32.2-14.2,49.5-31.1,49.5H793.4V547.6h93.2c17-0.1,31.4,17.3,31.1,49.4
		c0,17.7-4.4,31.3-11.4,39.6C917.5,643.3,924.9,659.2,924.9,682.4z M831.6,591.3v24.8h44.3c3.3,0,6-6.3,6-12.5s-2.7-12.3-6-12.3
		H831.6z M883,688c3.3,0,6-6.2,6-12.3s-2.7-12.3-6-12.3h-51.4V688H883z"/>
	<path class="st0" d="M976.7,547.6h45.4l52.6,184.3h-43l-7.7-31.5h-49.1l-7.7,31.5h-43L976.7,547.6z M985.9,655.3h26.9l-13.4-54.4
		L985.9,655.3z"/>
	<path class="st0" d="M1173.2,547.3h38.3v184.3h-43L1115.8,619v112.6h-38.2V547.3h52.6l43,97.6V547.3z"/>
</g>
<g>
</g>
<g>
</g>
<g>
</g>
<g>
</g>
<g>
</g>
<g>
</g>
<g>
</g>
<g>
</g>
<g>
</g>
<g>
</g>
<g>
</g>
<g>
</g>
<g>
</g>
<g>
</g>
<g>
</g>
</svg>
