<?xml version="1.0" encoding="UTF-8"?>
<svg id="Layer_1" data-name="Layer 1" xmlns="http://www.w3.org/2000/svg" viewBox="0 0 941.93 829">
  <defs>
    <style>
      .cls-1 {
        stroke-width: 0px;
      }
    </style>
  </defs>
  <path class="cls-1" d="M279.71,213.59c-3.17,81.97-41.39,106.52-87.86,106.52-48.4-.18-88.34-26.54-88.15-118.44v-17.69c-.19-91.72,39.75-118.07,88.15-118.44,46.48.18,84.69,24.73,87.86,106.52h-51.56c-4.71-23.83-19.01-29.43-36.3-29.43-20.55.54-38.03,7.4-37.74,47.3v5.96c-.29,39.54,17.19,46.76,37.74,47.3,17.28,0,31.69-5.78,36.3-29.61h51.56Z"/>
  <path class="cls-1" d="M341.25,71.86h59.82l69.23,242.65h-56.65l-10.18-41.52h-64.62l-10.18,41.52h-56.65l69.23-242.65ZM353.45,213.77h35.43l-17.67-71.67-17.76,71.67Z"/>
  <path class="cls-1" d="M554.51,165.39c36.01,3.43,86.61,8.12,86.52,68.97,0,69.33-42.25,85.76-87.57,85.76-45.23-.18-82.77-10.47-87.57-85.76h52.72c5.76,18.78,19.11,23.65,34.86,23.65s34.86-4.87,34.86-23.65c0-10.65-15.65-12.28-35.91-14.08-36.01-3.43-86.61-8.12-86.52-68.79,0-69.33,42.25-85.94,87.57-85.94,45.23.54,82.77,10.11,87.57,85.94h-52.72c-5.76-19.14-19.11-23.65-34.86-23.65s-34.86,4.33-34.86,23.65c0,10.65,15.65,12.1,35.91,13.9Z"/>
  <path class="cls-1" d="M709.19,71.86h59.82l69.23,242.65h-56.65l-10.18-41.52h-64.62l-10.18,41.52h-56.65l69.23-242.65ZM721.39,213.77h35.43l-17.67-71.67-17.76,71.67Z"/>
  <path class="cls-1" d="M127.81,515.22h50.41v130.35c.19,91.71-39.75,118.07-88.15,118.25-48.4-.18-88.34-26.54-88.15-118.25v-130.35h50.32v124.39c-.19,39.9,17.19,46.76,37.83,47.3,20.55-.54,38.02-7.4,37.74-47.3v-124.39Z"/>
  <path class="cls-1" d="M325.22,515.4c26.6-.54,49.16,41.52,48.78,91.71,0,18.24-2.59,34.84-7.78,49.65-5.09,14.62-11.91,25.82-20.36,33.22l28.13,68.06h-53.58l-24.29-59.22h-44.94v59.22h-50.32v-242.65h124.35ZM251.19,586.35v41.34h61.36c3.07,0,5.67-1.99,7.78-5.96,2.21-4.15,3.26-9.03,3.26-14.62,0-11.55-4.9-20.76-11.04-20.76h-61.36Z"/>
  <path class="cls-1" d="M562.67,693.05c.29,42.43-18.72,65.18-40.91,65.18h-132.22v-242.65h122.72c22.37-.18,41.29,22.75,41,65,0,23.29-5.76,41.16-14.98,52.18,14.6,8.85,24.39,29.79,24.39,60.3ZM439.86,573.17v32.68h58.29c4.32,0,7.87-8.3,7.87-16.43s-3.55-16.25-7.87-16.25h-58.29ZM507.56,700.45c4.32,0,7.87-8.12,7.87-16.25s-3.55-16.25-7.87-16.25h-67.7v32.5h67.7Z"/>
  <path class="cls-1" d="M630.84,515.58h59.82l69.23,242.65h-56.65l-10.18-41.52h-64.62l-10.18,41.52h-56.65l69.23-242.65ZM643.04,657.48h35.43l-17.67-71.68-17.76,71.68Z"/>
  <path class="cls-1" d="M889.61,515.22h50.41v242.65h-56.65l-69.33-148.22v148.22h-50.32v-242.65h69.23l56.65,128.55v-128.55Z"/>
</svg>