<?xml version="1.0" encoding="UTF-8"?>
<svg width="1080px" height="464px" viewBox="0 0 1080 464" version="1.1" xmlns="http://www.w3.org/2000/svg" xmlns:xlink="http://www.w3.org/1999/xlink">
    <!-- Generator: Sketch 55.2 (78181) - https://sketchapp.com -->
    <title>CENTURY LOGO Copy 2</title>
    <desc>Created with Sketch.</desc>
    <g id="Page-1" stroke="none" stroke-width="1" fill="none" fill-rule="evenodd">
        <g id="Century_1600_Homepage-Copy" transform="translate(-260.000000, -2653.000000)" fill="#FEFDF9">
            <path d="M745.458842,2902.97458 C745.458842,2909.83543 745.512765,2916.69801 745.448625,2923.55829 C745.256204,2944.15172 744.943449,2964.74287 744.815736,2985.3363 C744.669291,3008.88817 744.701645,3032.44119 744.597772,3055.99364 C744.525685,3072.39729 744.334967,3088.80094 744.240743,3105.20573 C744.208389,3110.78772 745.620044,3112.14959 751.064592,3112.17879 C761.082969,3112.23202 771.101346,3112.28126 781.119155,3112.38269 C785.568109,3112.42723 787.919732,3110.23702 787.893054,3105.65339 C787.831751,3095.07674 787.722202,3084.50067 787.556459,3073.92517 C787.381066,3062.77149 786.933219,3051.61838 786.94968,3040.46642 C786.963871,3030.8429 787.616058,3021.22225 787.702336,3011.59702 C787.783504,3002.55283 787.386175,2993.50578 787.386175,2984.46045 C787.38504,2962.14507 787.395824,2939.82913 787.579731,2917.51432 C787.785207,2892.53933 788.373822,2867.56663 788.462938,2842.59221 C788.632654,2794.98756 788.565108,2747.38235 788.598597,2699.7777 C788.602003,2694.52487 789.989818,2693.05023 795.052929,2693.05309 C805.07755,2693.05939 815.102171,2693.12923 825.126792,2693.12866 C828.210068,2693.12866 830.468034,2691.15942 830.553176,2688.13 C830.791006,2679.5598 831.057784,2670.98216 830.946532,2662.41196 C830.87104,2656.60671 829.022323,2655.05307 823.283751,2654.9798 C815.248048,2654.87676 807.210074,2654.75883 799.173235,2654.80463 C781.302494,2654.90652 763.432321,2655.11432 745.56158,2655.26259 C734.220663,2655.35704 722.876341,2655.30323 711.538831,2655.55397 C706.07839,2655.67476 704.714982,2657.43677 704.683196,2663.02563 C704.638354,2670.84534 704.855183,2678.67994 704.430608,2686.47904 C704.120123,2692.18411 705.471043,2694.25353 711.112553,2694.17567 C721.133201,2694.03829 731.151578,2693.75664 741.172793,2693.64616 C745.302748,2693.60036 747.129328,2695.61597 747.039645,2699.59452 C746.873902,2706.93051 746.6531,2714.26707 746.611097,2721.60363 C746.470896,2745.72853 746.399945,2769.85286 746.302883,2793.97776 C746.243283,2808.75736 746.153033,2823.53638 746.132599,2838.31598 C746.10365,2859.86828 746.12522,2881.42114 746.12522,2902.97401 C745.903283,2902.97401 745.681346,2902.97401 745.458842,2902.97458 L745.458842,2902.97458 Z M419.349002,2885.60998 C418.852941,2921.6297 418.32165,2957.64941 417.875593,2993.6697 C417.612504,3014.92137 417.464766,3036.17532 417.304526,3057.4287 C417.198836,3071.43879 417.141445,3085.45001 417.107232,3099.46124 C417.095987,3104.00446 417.886957,3104.79618 422.349802,3104.92775 C426.891062,3105.06218 431.436299,3105.26355 435.975855,3105.18861 C453.765865,3104.89515 471.554171,3104.49299 489.343045,3104.15263 C497.009546,3104.00504 504.676616,3103.92094 512.343117,3103.78136 C516.51503,3103.70585 517.32532,3102.87981 517.398053,3098.75133 C517.559429,3089.60539 517.751489,3080.45945 517.852065,3071.31236 C517.90832,3066.23427 516.907674,3065.45228 511.808985,3065.5993 C496.389044,3066.04321 480.967398,3066.44879 465.545184,3066.77944 C459.012293,3066.91959 457.386599,3065.28009 457.468424,3058.81364 C457.678099,3042.23505 458.020171,3025.65875 458.186093,3009.08016 C458.43668,2984.01464 458.566804,2958.94797 458.78273,2933.8813 C458.858304,2925.11463 458.999224,2916.34796 459.182761,2907.583 C459.278223,2903.0169 460.247047,2902.13994 464.811605,2902.13823 C478.729725,2902.13136 492.648414,2902.15253 506.567103,2902.12736 C511.986271,2902.11706 513.601737,2900.5382 513.697767,2895.23244 C513.846642,2887.03839 513.980175,2878.84377 514.070523,2870.64858 C514.122232,2865.92974 512.559611,2864.59343 507.883682,2864.70612 C493.314374,2865.05679 478.742226,2865.2919 464.171782,2865.61568 C461.397705,2865.67746 459.874291,2864.35259 459.546993,2861.68627 C459.339023,2859.99128 459.324249,2858.26197 459.348683,2856.54983 C459.649842,2835.30102 460.00612,2814.05279 460.282846,2792.80341 C460.603325,2768.1961 460.862436,2743.58764 461.136889,2718.97975 C461.172687,2715.73852 461.122115,2712.49671 461.145981,2709.25547 C461.181211,2704.47084 462.408578,2703.19746 467.256112,2703.16771 C482.785152,2703.0739 498.314192,2703.02584 513.843233,2702.96978 C518.894191,2702.9509 520.286912,2701.65349 520.317028,2696.60229 C520.365328,2688.40424 520.352258,2680.20504 520.322711,2672.00642 C520.307368,2667.57703 519.215807,2666.43293 514.730801,2666.48499 C510.571957,2666.53361 506.414818,2667.01585 502.258247,2666.99411 C477.455195,2666.86311 452.653279,2666.63429 427.850795,2666.45848 C423.494209,2666.42836 422.579933,2667.31389 422.507769,2671.52189 C422.021936,2699.9116 421.526443,2728.30131 421.080954,2756.69216 C420.840595,2772.03341 420.733768,2787.37637 420.494545,2802.71704 C420.06383,2830.34764 419.579133,2857.97652 419.117166,2885.60598 C419.194445,2885.60769 419.271723,2885.60884 419.349002,2885.60998 L419.349002,2885.60998 Z M304.232222,2880.49652 C304.232222,2874.97407 304.085819,2869.44648 304.259566,2863.92975 C304.835492,2845.64554 305.520224,2827.36476 306.175334,2809.08341 C306.976846,2786.71214 307.847287,2764.34316 308.575313,2741.9696 C308.950149,2730.44928 308.991735,2718.9181 309.359735,2707.39722 C309.543166,2701.64936 311.546661,2699.98342 317.38682,2699.92964 C325.547205,2699.8547 333.70759,2699.75916 341.867405,2699.65961 C347.089482,2699.59611 348.951132,2701.40165 348.730673,2706.73187 C348.163861,2720.43759 347.536095,2734.14102 346.85706,2747.8416 C346.610967,2752.80568 347.626671,2754.02081 352.575311,2753.99335 C361.780453,2753.94301 370.985595,2753.85376 380.190737,2753.81314 C386.046277,2753.7874 387.911345,2751.87602 387.979704,2745.865 C388.046924,2739.95696 388.281624,2734.05006 388.277636,2728.14259 C388.269661,2717.19552 388.667854,2706.21241 387.938688,2695.30939 C386.857473,2679.15052 375.863597,2667.44885 359.938741,2664.95851 C354.064973,2664.03973 348.030561,2663.94762 342.063938,2663.86981 C326.890464,2663.6713 311.706736,2663.29371 296.910947,2667.8682 C283.272708,2672.08512 274.912941,2681.26899 273.145285,2695.20641 C271.496119,2708.20788 271.357121,2721.41759 270.844427,2734.54721 C269.780871,2761.77272 268.932647,2789.00682 267.955679,2816.23576 C266.794142,2848.60385 265.618932,2880.97194 264.393023,2913.33831 C263.725951,2930.94916 262.899943,2948.55429 262.223187,2966.16572 C261.682579,2980.25417 261.125451,2994.3432 260.816695,3008.43795 C260.391159,3027.86349 259.858527,3047.29819 260.034552,3066.72259 C260.127406,3076.99458 263.368204,3086.44505 272.053246,3093.06707 C278.863536,3098.25999 286.494707,3101.65138 295.041321,3102.05414 C305.361859,3102.54042 315.711448,3102.51982 326.047936,3102.51314 C335.35049,3102.4998 344.538542,3101.93972 353.479362,3098.62842 C366.072275,3093.96412 374.092523,3085.07602 376.519846,3072.21529 C378.395168,3062.28083 378.398016,3051.95334 378.789943,3041.78318 C379.33169,3027.69358 379.444482,3013.58739 379.772607,2999.48921 C379.847232,2996.28776 379.057683,2995.0978 375.711498,2995.01084 C364.994477,2994.73451 354.272899,2994.58119 343.55246,2994.52913 C340.219947,2994.51254 338.894917,2996.01372 338.804341,2999.29126 C338.522929,3009.48145 338.262594,3019.67278 338.03473,3029.86411 C337.811993,3039.86722 337.719138,3049.87377 337.408103,3059.87345 C337.269106,3064.34038 335.38353,3065.96856 330.940179,3065.97829 C322.206716,3065.99831 313.472113,3065.89534 304.740359,3066.00861 C298.153946,3066.09443 295.853657,3064.49084 297.477759,3057.85108 C297.522762,3057.66859 297.518205,3057.47178 297.523332,3057.28128 C297.799617,3046.43146 298.013809,3035.57993 298.363581,3024.73183 C298.876845,3008.82926 299.43853,2992.92783 300.069714,2977.02926 C300.633108,2962.8447 301.441456,2948.66986 301.918262,2934.483 C302.523241,2916.48885 302.903204,2898.48725 303.38058,2880.48851 C303.664271,2880.49138 303.948531,2880.49424 304.232222,2880.49652 L304.232222,2880.49652 Z M1254.81965,2837.93418 C1251.20736,2819.83347 1247.61442,2801.72932 1243.98163,2783.63319 C1241.24652,2770.00901 1238.4522,2756.398 1235.70114,2742.77783 C1230.29352,2716.00844 1224.86768,2689.24305 1219.52665,2662.46049 C1218.6529,2658.07723 1216.59117,2656.12822 1212.20416,2656.2461 C1210.87673,2656.28157 1209.5493,2656.30218 1208.22187,2656.3325 C1198.45855,2656.55624 1188.69466,2656.73535 1178.93362,2657.02662 C1174.80105,2657.15022 1173.27781,2659.19078 1174.15385,2663.14545 C1175.14202,2667.60539 1176.141,2672.06305 1177.20261,2676.5064 C1186.64261,2716.01187 1196.12644,2755.50761 1205.53855,2795.01995 C1213.36367,2827.87155 1221.05274,2860.75578 1228.91884,2893.59765 C1231.77862,2905.5389 1235.37782,2917.33767 1235.54233,2929.75387 C1235.75977,2946.13676 1235.86678,2962.52136 1235.95672,2978.90596 C1236.03698,2993.39134 1236.00397,3007.87614 1236.06658,3022.36095 C1236.13489,3038.3799 1236.27947,3054.39827 1236.34152,3070.41665 C1236.37567,3079.18433 1236.09903,3087.9583 1236.35005,3096.71853 C1236.58059,3104.76978 1238.69127,3106.64039 1246.7566,3107.14853 C1247.41918,3107.19088 1248.08346,3107.20633 1248.74717,3107.22521 C1256.42031,3107.44895 1264.09401,3107.67498 1271.76771,3107.89128 C1276.14333,3108.01431 1278.27906,3105.97718 1278.27394,3101.60994 C1278.25914,3086.6519 1278.2136,3071.69386 1278.18969,3056.7364 C1278.15326,3034.43439 1278.06332,3012.13238 1278.11057,2989.83151 C1278.16123,2965.89865 1278.33826,2941.96579 1278.48398,2918.0335 C1278.4948,2916.22755 1278.44129,2914.3638 1278.84487,2912.62709 C1282.35755,2897.526 1285.93967,2882.44092 1289.55424,2867.36444 C1295.80773,2841.28114 1302.20979,2815.2339 1308.34545,2789.12257 C1315.68046,2757.90811 1322.7007,2726.61811 1330.06531,2695.41052 C1332.88183,2683.47556 1336.34441,2671.69625 1339.37553,2659.80993 C1340.85153,2654.01841 1339.94589,2652.97581 1334.1068,2653 C1324.14823,2653.04219 1314.18967,2653.12402 1304.2311,2653.17323 C1298.69426,2653.2007 1296.97008,2654.49851 1295.82936,2659.98847 C1293.95206,2669.02395 1292.26659,2678.09948 1290.36424,2687.12924 C1287.22668,2702.0209 1283.89331,2716.87136 1280.80584,2731.77389 C1277.73773,2746.58315 1274.95138,2761.45134 1271.87757,2776.25946 C1270.58316,2782.49388 1268.67967,2788.6007 1267.38298,2794.83455 C1264.63136,2808.0616 1262.10685,2821.33728 1259.46167,2834.58665 C1258.98751,2836.96082 1257.94981,2838.88179 1255.08946,2839.10382 C1254.98757,2838.6632 1254.89308,2838.30098 1254.81965,2837.93418 L1254.81965,2837.93418 Z M550.443093,2887.15937 C550.443093,2904.27809 550.492915,2921.39794 550.428939,2938.5178 C550.370624,2954.01734 550.096601,2969.51688 550.084145,2985.01642 C550.063763,3008.80546 550.231348,3032.59449 550.230781,3056.38353 C550.230215,3070.56203 550.049609,3084.73995 549.975062,3098.91845 C549.949964,3103.71829 551.201186,3105.08674 555.894118,3105.23352 C565.499088,3105.53394 575.105756,3105.79152 584.714122,3105.98571 C588.087327,3106.05425 590.457288,3104.27801 590.70357,3101.57596 C590.901727,3099.40563 590.931734,3097.21018 590.891536,3095.029 C590.714327,3085.32937 590.323674,3075.63145 590.311784,3065.93295 C590.293101,3050.52765 590.608454,3035.12292 590.607888,3019.71819 C590.607888,3004.69269 590.29027,2989.6672 590.293667,2974.64227 C590.296498,2958.48078 590.580712,2942.31987 590.61355,2926.15895 C590.645255,2910.84389 590.506545,2895.52825 590.449362,2880.21262 C590.383121,2862.43024 590.244411,2844.64786 590.286873,2826.86549 C590.321975,2812.21637 590.720555,2797.56783 590.69904,2782.91871 C590.663372,2758.9412 590.400672,2734.96426 590.280079,2710.98675 C590.264226,2707.85234 590.468045,2704.7128 590.672997,2701.58239 C590.860397,2698.72156 592.321666,2697.09268 595.076053,2696.96817 C605.416469,2696.50098 615.75915,2696.05264 626.105794,2695.78648 C630.861571,2695.66426 631.955965,2696.90877 631.951436,2701.67949 C631.945774,2707.67358 631.793476,2713.6671 631.777624,2719.66119 C631.701758,2748.21237 631.607775,2776.76413 631.611172,2805.31588 C631.612304,2817.01735 631.94351,2828.7194 631.946341,2840.42087 C631.953135,2864.40352 631.843299,2888.38617 631.774227,2912.36883 C631.720441,2931.02162 631.564746,2949.67441 631.63212,2968.32663 C631.667222,2978.02341 632.300759,2987.71848 632.279811,2997.41411 C632.252635,3009.77696 631.667222,3022.13924 631.625892,3034.50209 C631.553423,3056.38981 631.701758,3078.27753 631.77819,3100.16524 C631.793476,3104.71036 632.712926,3105.72584 637.242803,3105.80752 C646.484862,3105.97429 655.729185,3106.04511 664.972942,3106.10207 C672.369306,3106.14506 673.727533,3104.74691 673.860582,3097.1919 C673.868508,3096.71614 673.865337,3096.23981 673.860582,3095.76406 C673.736592,3083.01797 673.580331,3070.27132 673.493142,3057.52523 C673.285926,3027.17439 673.056063,2996.82413 672.951889,2966.47329 C672.909993,2954.29834 673.294984,2942.12168 673.274602,2929.94616 C673.234405,2905.49061 673.006241,2881.03449 672.936603,2856.57836 C672.874891,2835.07331 672.934338,2813.56768 672.919051,2792.06263 C672.909993,2779.50102 672.920184,2766.93941 672.80865,2754.37838 C672.700512,2742.20115 672.535192,2730.02277 672.232295,2717.84897 C672.007528,2708.82442 671.833715,2699.77988 671.082416,2690.79131 C669.853274,2676.08166 660.079022,2664.33449 645.769231,2661.17496 C638.676896,2659.6089 631.205798,2659.55807 623.889829,2659.30734 C614.18295,2658.97493 605.443645,2661.71868 598.492286,2668.99212 C594.50083,2673.16828 592.000651,2674.08496 590.01285,2667.34782 C589.17153,2664.49612 587.275448,2663.58116 584.440099,2663.74222 C575.029324,2664.27738 565.608924,2664.6469 556.197582,2665.17806 C552.920626,2665.36311 551.201186,2667.50773 551.204583,2670.90429 C551.21251,2679.36056 551.236855,2687.8174 551.191561,2696.27367 C551.018315,2728.61663 550.747123,2760.95903 550.661632,2793.30257 C550.616905,2810.22367 550.9232,2827.14591 550.995103,2844.06759 C551.055682,2858.43171 551.007558,2872.79582 551.007558,2887.15994 C550.819592,2887.15994 550.631059,2887.15937 550.443093,2887.15937 L550.443093,2887.15937 Z M903.597341,2831.53904 C903.526581,2818.11664 903.265225,2804.69481 903.252671,2791.27241 C903.233839,2771.07907 903.377071,2750.88515 903.418729,2730.69181 C903.44612,2716.98011 903.346257,2703.26728 903.439843,2689.55616 C903.501472,2680.41541 903.880381,2671.27695 903.916332,2662.1362 C903.921468,2660.75034 903.200748,2658.69785 902.163878,2658.11354 C900.251643,2657.03584 897.872048,2656.39608 895.659653,2656.31432 C885.972935,2655.95585 876.277086,2655.81692 866.58352,2655.6917 C862.389841,2655.64026 861.020861,2656.79572 860.850238,2661.02534 C860.551219,2668.44462 860.479888,2675.87591 860.446791,2683.30263 C860.346357,2706.44493 860.282445,2729.58723 860.252771,2752.73011 C860.220815,2777.40006 860.292146,2802.07059 860.232228,2826.74054 C860.15405,2858.54963 859.981144,2890.35872 859.868156,2922.16724 C859.82764,2933.69437 859.851036,2945.2215 859.832205,2956.7492 C859.785983,2985.41838 859.679843,3014.08755 859.70438,3042.75672 C859.715223,3055.6983 860.022801,3068.63188 862.003514,3081.4694 C864.46414,3097.41139 877.526801,3110.96929 893.341688,3113.75359 C912.266027,3117.08504 931.343869,3117.37948 950.457661,3116.32865 C958.984256,3115.85983 966.974444,3113.15042 973.643585,3107.83738 C980.357237,3102.48946 984.98746,3095.27486 986.408369,3086.77044 C987.655231,3079.31171 988.082074,3071.63972 988.0798,3064.06207 C988.072944,3038.15262 987.657513,3012.24374 987.51314,2986.33428 C987.371049,2960.7124 987.446374,2935.08995 987.280316,2909.46865 C987.154203,2890.04313 986.753039,2870.6199 986.556737,2851.19439 C986.318207,2827.57583 986.170409,2803.95671 985.974678,2780.33816 C985.857125,2766.24227 985.661964,2752.14695 985.619165,2738.05163 C985.592915,2729.48146 985.797777,2720.9113 985.886228,2712.34056 C986.041443,2697.3059 986.156143,2682.27066 986.354728,2667.23657 C986.406657,2663.25622 984.408825,2659.8756 981.337607,2659.71609 C970.519868,2659.15637 959.697564,2658.66583 948.871836,2658.28964 C945.416003,2658.17015 943.658983,2660.28439 943.749145,2663.70673 C943.963708,2671.79093 944.271286,2679.8757 944.288406,2687.96104 C944.322645,2704.24664 944.168,2720.53225 944.132049,2736.81785 C944.101234,2751.0944 944.081261,2765.37153 944.137185,2779.64809 C944.226205,2802.32101 944.368296,2824.99335 944.516094,2847.66627 C944.688429,2874.14688 944.950355,2900.62691 945.063914,2927.1081 C945.195163,2957.67997 945.235108,2988.25185 945.257363,3018.8243 C945.268205,3033.01624 945.099865,3047.20875 945.11299,3061.40069 C945.115843,3064.51202 945.81146,3067.62964 945.721869,3070.73068 C945.574642,3075.80189 943.842731,3077.38385 938.875827,3077.28551 C928.709766,3077.08312 918.544275,3076.80469 908.380497,3076.48567 C904.614232,3076.36732 903.171068,3074.62013 903.170498,3070.87247 C903.168786,3058.78505 903.137971,3046.69763 903.048379,3034.61078 C902.966777,3023.5639 902.630666,3012.51645 902.711127,3001.47128 C902.776752,2992.52607 903.498619,2983.58485 903.568238,2974.63906 C903.71147,2956.35643 903.611607,2938.07265 903.611607,2919.78944 C903.611607,2902.08196 903.611607,2884.37505 903.611036,2866.66756 C903.611036,2854.95805 903.660112,2843.24855 903.597341,2831.53904 L903.597341,2831.53904 Z M1066.18516,2777.90954 L1066.47577,2777.90954 C1066.47577,2791.4424 1066.50126,2804.97525 1066.4684,2818.5081 C1066.43725,2831.08332 1066.30525,2843.65796 1066.29336,2856.23317 C1066.28656,2862.85829 1068.49303,2864.95893 1075.02975,2864.7301 C1083.23251,2864.4435 1091.43188,2864.04934 1099.6352,2863.80564 C1106.47782,2863.60198 1108.39426,2861.76221 1108.37905,2854.87279 C1108.35404,2843.73404 1108.29286,2832.59587 1108.19485,2821.45769 C1108.09968,2810.68964 1107.86686,2799.92217 1107.8221,2789.15355 C1107.71787,2764.37325 1107.66009,2739.59296 1107.65612,2714.81209 C1107.65499,2709.19495 1108.02037,2703.57838 1108.07759,2697.96009 C1108.11328,2694.40183 1106.13906,2692.34581 1102.64496,2692.48483 C1092.0907,2692.90415 1081.53871,2693.411 1070.99522,2694.03628 C1067.19238,2694.26167 1066.17609,2695.66324 1066.18454,2699.5985 C1066.19196,2703.2134 1066.18516,2706.8283 1066.18516,2710.44377 L1066.18516,2777.90954 Z M1025.0833,2890.20339 C1025.0833,2869.26249 1025.0639,2848.32103 1025.08786,2827.38013 C1025.13352,2787.77063 1025.16604,2748.16055 1025.2893,2708.55104 C1025.32697,2696.36667 1025.6762,2684.18344 1025.80346,2671.99906 C1025.82571,2669.82622 1025.36235,2667.65395 1025.28588,2665.47539 C1025.11754,2660.68394 1026.97728,2658.62883 1031.75761,2658.38479 C1039.82258,2657.97331 1047.8927,2657.64127 1055.9611,2657.28752 C1069.53569,2656.69258 1083.11484,2655.59759 1096.6843,2655.69817 C1105.45916,2655.76275 1114.44574,2656.68744 1122.93813,2658.82256 C1136.26107,2662.1727 1144.06982,2671.44985 1146.9282,2685.03611 C1149.13433,2695.52085 1148.56996,2706.04502 1148.28349,2716.60062 C1148.16423,2720.97316 1148.2852,2725.35371 1148.32458,2729.73025 C1148.40618,2738.66508 1148.5283,2747.59991 1148.59221,2756.53474 C1148.71547,2773.85689 1148.81762,2791.17848 1148.91406,2808.50064 C1148.98539,2821.35367 1149.14004,2834.20841 1149.04474,2847.0603 C1149.00251,2852.76101 1148.58651,2858.47201 1148.06094,2864.15214 C1147.54108,2869.77056 1144.84876,2873.9888 1139.37453,2876.16335 C1138.07459,2876.67999 1136.88707,2877.5481 1135.74976,2878.39277 C1133.23035,2880.26329 1133.29598,2881.92978 1135.98145,2883.65571 C1137.49652,2884.63069 1139.14684,2885.3925 1140.70642,2886.30061 C1145.59231,2889.14668 1148.42501,2893.44379 1148.66697,2899.04963 C1149.10979,2909.30805 1149.32835,2919.57905 1149.4693,2929.84718 C1149.71297,2947.64197 1149.8465,2965.43904 1149.9806,2983.23555 C1150.01998,2988.37447 1149.8231,2993.51511 1149.88074,2998.6529 C1149.95435,3005.31087 1150.29103,3011.96655 1150.31215,3018.62396 C1150.39432,3044.7935 1150.3909,3070.96305 1150.43484,3097.13259 C1150.44111,3100.93935 1150.64769,3104.74897 1150.54497,3108.55116 C1150.45766,3111.75899 1149.19995,3113.03343 1145.96323,3113.15916 C1135.80797,3113.55292 1125.65042,3113.89697 1115.48945,3114.10956 C1110.94994,3114.20443 1109.22487,3112.2962 1109.15868,3107.61275 C1108.98349,3095.24436 1108.75066,3082.87596 1108.69531,3070.50756 C1108.62855,3055.75372 1108.80259,3040.99931 1108.72384,3026.24662 C1108.64624,3011.77682 1108.23765,2997.30816 1108.23423,2982.83835 C1108.22966,2961.41683 1108.46876,2939.9953 1108.56977,2918.57321 C1108.58803,2914.67786 1108.47219,2910.78081 1108.36262,2906.88604 C1108.26961,2903.59648 1106.36193,2901.7854 1102.7463,2901.86484 C1096.95193,2901.99228 1091.1627,2902.36262 1085.36948,2902.54492 C1081.47537,2902.6678 1077.57385,2902.75409 1073.68031,2902.65922 C1068.69683,2902.53807 1065.9697,2904.96008 1065.98112,2909.91041 C1065.99767,2917.0433 1066.17628,2924.17676 1066.15003,2931.30908 C1066.10381,2944.06895 1065.9018,2956.82769 1065.87384,2969.58699 C1065.85786,2976.62958 1066.14889,2983.67217 1066.14775,2990.71591 C1066.14661,2998.71233 1065.82419,3006.71047 1065.91721,3014.70518 C1066.02106,3023.64972 1066.54264,3032.58912 1066.68416,3041.53424 C1066.82853,3050.66509 1066.7863,3059.80051 1066.72753,3068.93422 C1066.65848,3079.78243 1066.45533,3090.63007 1066.38057,3101.47828 C1066.36688,3103.46252 1066.58943,3105.46392 1066.87704,3107.43159 C1067.60575,3112.40249 1066.03989,3115.04968 1061.14886,3115.28228 C1050.82754,3115.77377 1040.48454,3115.91493 1030.14952,3115.97162 C1026.7553,3115.99094 1024.85789,3113.43691 1024.88778,3109.7776 C1025.0074,3095.59583 1025.21455,3081.41463 1025.24365,3067.23287 C1025.27561,3052.19785 1025.06504,3037.16226 1025.10099,3022.12725 C1025.15349,3000.42855 1025.38289,2978.72984 1025.44395,2957.03114 C1025.50615,2934.75522 1025.45764,2912.47873 1025.45764,2890.20282 C1025.33324,2890.20282 1025.20827,2890.20339 1025.0833,2890.20339 L1025.0833,2890.20339 Z" id="CENTURY-LOGO-Copy-2"></path>
        </g>
    </g>
</svg>